<?xml version="1.0" encoding="UTF-8"?>
<svg xmlns="http://www.w3.org/2000/svg" xmlns:xlink="http://www.w3.org/1999/xlink" viewBox="0 0 77.84 26.8">
  <defs>
    <style>
      .cls-1 {
        fill: #872121;
      }

      .cls-2 {
        fill: url(#radial-gradient);
        stroke: #872121;
        stroke-linecap: round;
        stroke-linejoin: round;
        stroke-width: .13px;
      }

      .cls-3 {
        fill: url(#radial-gradient-2);
      }

      .cls-4 {
        fill: #ff829a;
      }

      .cls-5 {
        fill: #fff9f0;
      }

      .cls-6 {
        fill: #fc8baa;
        mix-blend-mode: multiply;
        opacity: .64;
      }

      .cls-7 {
        isolation: isolate;
      }

      .cls-8 {
        fill: url(#linear-gradient);
      }

      .cls-8, .cls-9, .cls-10 {
        mix-blend-mode: overlay;
      }

      .cls-9 {
        fill: url(#linear-gradient-2);
      }

      .cls-10 {
        fill: url(#linear-gradient-3);
      }

      .cls-11 {
        fill: #b32c49;
      }
    </style>
    <radialGradient id="radial-gradient" cx="39.07" cy="47.3" fx="39.07" fy="47.3" r="1.31" gradientTransform="translate(0 -37.76) scale(1 .84)" gradientUnits="userSpaceOnUse">
      <stop offset="0" stop-color="#ff5252"/>
      <stop offset="1" stop-color="#ff1c1c"/>
    </radialGradient>
    <linearGradient id="linear-gradient" x1="42.18" y1=".22" x2="38.72" y2="3.82" gradientUnits="userSpaceOnUse">
      <stop offset=".19" stop-color="#fff"/>
      <stop offset="1" stop-color="#fff" stop-opacity="0"/>
    </linearGradient>
    <radialGradient id="radial-gradient-2" cx="38.92" cy="72.35" fx="38.92" fy="72.35" r="27.59" xlink:href="#radial-gradient"/>
    <linearGradient id="linear-gradient-2" x1="39.29" y1="-.87" x2="39.74" y2="17.56" xlink:href="#linear-gradient"/>
    <linearGradient id="linear-gradient-3" x1="39.85" y1="39.65" x2="38.61" y2="18.55" xlink:href="#linear-gradient"/>
  </defs>
  <g class="cls-7">
    <g id="Layer_2" data-name="Layer 2">
      <g id="Layer_1-2" data-name="Layer 1">
        <g>
          <line class="cls-2" x1="39.07" y1="3.57" x2="39.07" y2=".45"/>
          <g>
            <g>
              <path class="cls-4" d="M44.43,1.25s-.46.53-.99.48c-.53-.06-.91-.15-1.31.2-.4.35-.95.44-1.52.35-.56-.1-1.07.38-1.6.4V.14s.25-.1.62-.07c.26.02.58.11.91.35.62.45,1.14.36,1.59.34.12,0,.24,0,.35.01.52.08.71.37,1.02.49s.92,0,.92,0Z"/>
              <path class="cls-11" d="M44.43,1.25c-.16.19-.35.34-.58.44-.46.19-.97-.11-1.42.09-.22.08-.36.3-.6.4-.45.23-.97.17-1.43.12-.48.03-.88.37-1.38.4-.04,0-.02-2.55-.04-2.56.98-.54,1.76.69,2.73.59.46-.02.99-.06,1.39.25.38.35.85.38,1.33.28h0ZM44.42,1.26c-.47.13-.98.08-1.35-.24-.4-.29-.89-.23-1.36-.2-.98.09-1.67-1.05-2.68-.64.06-.19-.02,2.55,0,2.51.4-.06.89-.38,1.36-.44.89.13,1.32-.02,2.01-.53.24-.1.49-.08.73-.05.48.14.96-.07,1.29-.41h0Z"/>
            </g>
            <path class="cls-6" d="M44.43,1.25s-.46.53-.99.48c-.53-.06-.91-.15-1.31.2-.4.35-.95.44-1.52.35-.56-.1-1.07.38-1.6.4V.14s.25-.1.62-.07c-.06.53-.02,1.42.76,1.92,1.16.75,2.25-.28,1.74-1.24h0c.12,0,.24,0,.35.01.52.08.71.37,1.02.49s.92,0,.92,0Z"/>
            <path class="cls-8" d="M44.43,1.25s-.46.53-.99.48c-.53-.06-.91-.15-1.31.2-.4.35-.95.44-1.52.35-.56-.1-1.07.38-1.6.4v-.1c.14-.09.95-.55,1.45-.49.56.06.99.18,1.35-.15.36-.33.68-.5,1.28-.37.6.14.85-.16.85-.16,0,0-.41.04-.74-.19-.33-.23-.55-.39-1.1-.31-.55.07-1.11.03-1.56-.15-.45-.18-.47-.52-.9-.59-.24-.04-.47.03-.63.11v-.14s.25-.1.62-.07c.26.02.58.11.91.35.62.45,1.14.36,1.59.34.12,0,.24,0,.35.01.52.08.71.37,1.02.49s.92,0,.92,0Z"/>
            <g>
              <rect class="cls-4" x="38.87" y=".11" width=".26" height="2.65" rx=".12" ry=".12"/>
              <path class="cls-11" d="M39,2.76c-.16.02-.16-.16-.15-.27,0-.34-.03-.71-.02-1.05,0-.25.03-.81.02-1.05,0-.11-.03-.31.13-.31.16-.03.18.17.17.29,0,.22,0,.82,0,1.05,0,.34-.02.71-.03,1.05,0,.1.03.28-.13.29h0ZM39,2.75c.14,0,.1-.17.1-.28,0-.34-.03-.71-.03-1.05,0-.23,0-.83,0-1.05,0-.12.02-.25-.11-.24-.12,0-.1.15-.1.26-.01.24.01.81.02,1.05.01.34-.01.71-.02,1.05,0,.11-.02.27.12.26h0Z"/>
            </g>
          </g>
          <g>
            <path class="cls-4" d="M.24,19.65c-.06,0-.12-.05-.12-.11,0-.06.04-.12.11-.12.11-.01,10.84-1.16,22.84-6.65,5.96-2.72,11.26-6.06,15.77-9.93.02-.02.05-.03.08-.03s.05,0,.08.03c4.86,4.17,10.64,7.73,17.19,10.56,11.42,4.95,21.33,6.01,21.42,6.02.06,0,.11.06.11.12,0,.06-.05.11-.12.11H.24Z"/>
            <path class="cls-11" d="M38.92,2.92c5.5,4.72,11.56,8.13,17.22,10.58,11.57,5.01,21.46,6.03,21.46,6.03H.24s10.72-1.1,22.88-6.66c5.25-2.4,10.76-5.62,15.8-9.95M38.92,2.68c-.06,0-.11.02-.15.06-4.5,3.86-9.8,7.2-15.74,9.91C11.03,18.14.32,19.28.21,19.3c-.13.01-.22.12-.21.25,0,.13.11.23.24.23h77.36c.13,0,.23-.1.24-.23s-.09-.24-.21-.25c-.1-.01-9.99-1.07-21.39-6.01-6.54-2.83-12.31-6.38-17.16-10.54-.04-.04-.1-.06-.15-.06h0Z"/>
          </g>
          <g>
            <path class="cls-3" d="M74.26,26.71c-.23,0-1.39-.06-1.92-1.2-.39-.83-.97-1.38-1.67-1.6-.22-.07-.46-.11-.7-.11h-.14c-1.01,0-1.85.61-2.37,1.71-.25.53-.67.9-1.22,1.08-.31.1-.58.12-.71.12l-.11-.09v.1c-.23,0-1.39-.06-1.92-1.2-.44-.93-1.1-1.5-1.91-1.66-.15-.03-.3-.04-.46-.04h-.15c-1.01,0-1.85.61-2.37,1.71-.37.77-1,1.05-1.48,1.15-.21.04-.37.05-.45.05l-.11-.09v.1c-.23,0-1.39-.06-1.92-1.2-.48-1.01-1.24-1.61-2.15-1.7-.07,0-.15-.01-.22-.01h-.15c-1.01,0-1.85.61-2.37,1.71-.46.97-1.37,1.15-1.74,1.19-.08,0-.15,0-.19,0l-.11-.09v.1c-.23,0-1.39-.06-1.93-1.2-.52-1.1-1.36-1.71-2.37-1.71h-.14c-1.01,0-1.85.61-2.37,1.71-.54,1.14-1.7,1.2-1.93,1.2l-.11-.1v.09c-.23,0-1.39-.06-1.92-1.2-.52-1.1-1.36-1.71-2.37-1.71h-.26c-.96.05-1.76.66-2.25,1.71-.54,1.14-1.7,1.2-1.93,1.2h-.11s-.12,0-.22-.01c-.45-.05-1.28-.27-1.71-1.19-.52-1.1-1.36-1.71-2.37-1.71h-.15c-.12,0-.24,0-.35.03-.85.13-1.56.73-2.01,1.68-.54,1.14-1.7,1.2-1.92,1.2l-.11-.1v.09c-.09,0-.26,0-.48-.05-.46-.1-1.09-.38-1.45-1.14-.52-1.1-1.36-1.71-2.37-1.71h-.15c-.2,0-.4.03-.6.08-.75.2-1.36.76-1.77,1.63-.53,1.14-1.7,1.2-1.92,1.2l-.11-.1v.09c-.11,0-.41-.01-.74-.13-.37-.13-.88-.42-1.19-1.07-.52-1.1-1.36-1.71-2.37-1.71h-.14c-.29,0-.58.05-.84.16-.64.25-1.17.78-1.53,1.55-.54,1.14-1.7,1.2-1.92,1.2h-.11c-.16,0-.57-.02-1-.24-.41-.21-.72-.53-.93-.96-.33-.7-.78-1.19-1.34-1.47-.03-.02-.05-.05-.05-.08v-4.43c0-.05.04-.09.09-.09h77.36c.05,0,.09.04.09.09v4.43s-.02.07-.05.08c-.56.28-1.01.77-1.34,1.47-.21.44-.53.77-.96.98-.42.2-.82.22-.97.22l-.11-.09v.1Z"/>
            <path class="cls-1" d="M77.6,19.53v4.43c-.55.27-1.03.77-1.39,1.51-.23.49-.58.77-.91.93-.4.19-.79.21-.93.21-.04,0-.06,0-.06,0,0,0-.02,0-.06,0-.26,0-1.33-.07-1.84-1.14-.42-.89-1.04-1.43-1.73-1.65-.24-.07-.48-.11-.73-.11-.02,0-.05,0-.07,0-.02,0-.05,0-.07,0-.98,0-1.89.56-2.46,1.76-.29.61-.76.9-1.16,1.03-.3.1-.57.11-.68.11-.04,0-.06,0-.06,0,0,0-.02,0-.06,0-.26,0-1.33-.07-1.84-1.14-.47-1-1.19-1.56-1.98-1.71-.16-.03-.32-.05-.48-.05-.02,0-.05,0-.07,0-.02,0-.05,0-.07,0-.98,0-1.89.56-2.46,1.76-.35.75-.97,1.01-1.41,1.1-.19.04-.35.05-.43.05-.04,0-.06,0-.06,0,0,0-.02,0-.06,0-.26,0-1.33-.07-1.84-1.14-.52-1.1-1.34-1.67-2.23-1.75-.08,0-.15-.01-.23-.01-.03,0-.05,0-.08,0-.02,0-.05,0-.07,0-.98,0-1.89.56-2.46,1.76-.43.91-1.26,1.1-1.66,1.13-.08,0-.14,0-.18,0-.04,0-.06,0-.06,0,0,0-.02,0-.06,0-.26,0-1.33-.07-1.84-1.14-.56-1.2-1.48-1.76-2.46-1.76,0,0-.01,0-.02,0-.02,0-.03,0-.05,0-.02,0-.05,0-.07,0-.98,0-1.89.56-2.46,1.76-.51,1.08-1.58,1.14-1.84,1.14-.04,0-.06,0-.06,0h-.01s-.03,0-.05,0c-.26,0-1.33-.07-1.84-1.14-.56-1.2-1.48-1.76-2.46-1.76-.02,0-.05,0-.07,0-.02,0-.05,0-.07,0-.04,0-.08,0-.13,0-.93.05-1.79.61-2.33,1.76-.51,1.08-1.58,1.14-1.84,1.14-.04,0-.06,0-.06,0,0,0-.02,0-.05,0-.05,0-.12,0-.21-.01-.41-.04-1.21-.24-1.63-1.13-.56-1.2-1.48-1.76-2.46-1.76-.02,0-.05,0-.07,0-.02,0-.05,0-.07,0-.13,0-.25,0-.37.03-.83.13-1.59.69-2.08,1.73-.51,1.08-1.58,1.14-1.84,1.14-.04,0-.06,0-.06,0,0,0-.02,0-.06,0-.08,0-.25,0-.46-.05-.43-.09-1.04-.36-1.38-1.09-.56-1.2-1.48-1.76-2.46-1.76-.02,0-.05,0-.07,0-.02,0-.05,0-.07,0-.21,0-.42.03-.63.08-.73.19-1.39.74-1.83,1.68-.51,1.08-1.58,1.14-1.84,1.14-.04,0-.06,0-.06,0,0,0-.02,0-.06,0-.11,0-.39-.01-.71-.12-.39-.13-.85-.42-1.13-1.02-.56-1.2-1.48-1.76-2.46-1.76-.02,0-.05,0-.07,0-.02,0-.05,0-.07,0-.3,0-.6.05-.88.16-.63.24-1.19.77-1.58,1.6-.51,1.08-1.58,1.14-1.84,1.14-.04,0-.06,0-.06,0,0,0-.02,0-.06,0-.14,0-.54-.02-.95-.23-.33-.16-.66-.44-.88-.92-.35-.74-.84-1.24-1.39-1.51v-4.43h77.36M77.6,19.34H.24c-.1,0-.19.08-.19.19v4.43c0,.07.04.14.11.17.54.27.98.75,1.3,1.42.21.45.54.79.97,1.01.45.22.88.25,1.04.25h.07s.04,0,.04,0c.24,0,1.45-.06,2.01-1.25.35-.75.86-1.26,1.48-1.5.26-.1.53-.15.81-.15h.06s.08,0,.08,0c.97,0,1.78.59,2.29,1.65.32.68.85.99,1.24,1.12.33.12.62.13.77.13h.07s.04,0,.04,0c.24,0,1.45-.06,2.01-1.25.4-.84.99-1.39,1.71-1.58.19-.05.38-.07.58-.07h.07s.08,0,.08,0c.97,0,1.78.59,2.29,1.65.37.8,1.03,1.09,1.51,1.2.22.05.41.06.5.06h.07s.04,0,.04,0c.24,0,1.45-.06,2.01-1.25.43-.92,1.12-1.5,1.94-1.63.11-.02.23-.03.34-.03h.07s.08,0,.08,0c.97,0,1.78.59,2.28,1.65.45.96,1.31,1.19,1.78,1.24.1.01.18.01.23.01h.06s.04,0,.04,0c.24,0,1.45-.06,2.01-1.25.48-1.02,1.25-1.6,2.17-1.65.04,0,.08,0,.12,0h.06s.08,0,.08,0c.97,0,1.78.59,2.29,1.65.56,1.19,1.77,1.25,2.01,1.25,0,0,.05,0,.05,0h.06c.24,0,1.45-.06,2.01-1.25.5-1.07,1.31-1.65,2.29-1.65h.07s0,0,0,0c0,0,.06,0,.06,0,.99,0,1.8.59,2.3,1.65.56,1.19,1.77,1.25,2.01,1.25h.06s.02,0,.06,0c.05,0,.11,0,.2-.01.39-.04,1.34-.23,1.81-1.24.5-1.07,1.31-1.65,2.28-1.65h.07s.08,0,.08,0c.07,0,.14,0,.21.01.88.08,1.61.66,2.07,1.64.56,1.19,1.77,1.25,2.01,1.25h.07s.04,0,.04,0c.08,0,.26,0,.47-.05.49-.1,1.16-.39,1.54-1.2.5-1.07,1.31-1.65,2.29-1.65h.07s.08,0,.08,0c.15,0,.3.01.44.04.78.16,1.42.71,1.84,1.61.56,1.19,1.77,1.25,2.01,1.25h.07s.04,0,.04,0c.14,0,.42-.02.74-.12.57-.19,1.01-.58,1.27-1.13.5-1.06,1.31-1.65,2.28-1.65h.07s.08,0,.08,0c.23,0,.46.03.67.1.68.21,1.24.75,1.61,1.55.56,1.19,1.77,1.25,2.01,1.25h.07s.04,0,.04,0c.16,0,.57-.02,1.01-.23.45-.21.78-.56,1-1.02.32-.67.76-1.15,1.3-1.42.06-.03.11-.1.11-.17v-4.43c0-.1-.08-.19-.19-.19h0Z"/>
          </g>
          <path class="cls-4" d="M77.6,19.53v4.43c-.55.27-1.03.77-1.39,1.51-.23.49-.58.77-.91.93-.51.24-.98.21-.98.21,0,0-1.32.09-1.9-1.14-.42-.89-1.04-1.43-1.73-1.65-.26-.08-.53-.12-.8-.11-1-.03-1.95.53-2.53,1.76-.29.61-.76.9-1.16,1.03-.4.13-.73.11-.73.11,0,0-1.32.09-1.89-1.14-.47-1-1.19-1.56-1.98-1.71-.18-.04-.36-.05-.55-.05-1-.03-1.95.53-2.53,1.76-.35.75-.97,1.01-1.41,1.1-.28.06-.49.04-.49.04,0,0-1.32.09-1.9-1.14-.52-1.1-1.34-1.67-2.23-1.75-.1,0-.2-.01-.3,0-1-.03-1.95.53-2.53,1.76-.43.91-1.26,1.1-1.66,1.13-.14.01-.24,0-.24,0,0,0-1.32.09-1.9-1.14-.57-1.21-1.49-1.77-2.48-1.76-.02,0-.03,0-.05,0-1-.03-1.95.53-2.53,1.76-.58,1.23-1.9,1.14-1.9,1.14h-.01c-.14,0-1.34.01-1.88-1.14-.58-1.23-1.53-1.79-2.53-1.76-.07,0-.13,0-.2,0-.93.05-1.79.61-2.33,1.76-.58,1.23-1.9,1.14-1.9,1.14,0,0-.1,0-.26-.01-.41-.04-1.21-.24-1.63-1.13-.58-1.23-1.53-1.79-2.53-1.76-.15,0-.3,0-.45.03-.83.13-1.59.69-2.08,1.73-.58,1.23-1.9,1.14-1.9,1.14,0,0-.22.01-.51-.05-.43-.09-1.04-.36-1.38-1.09-.58-1.23-1.53-1.79-2.53-1.76-.24,0-.47.02-.7.08-.73.19-1.39.74-1.83,1.68-.58,1.23-1.89,1.14-1.89,1.14,0,0-.35.02-.76-.12-.39-.13-.85-.42-1.13-1.02-.58-1.23-1.53-1.79-2.53-1.76-.32,0-.64.04-.95.16-.63.24-1.19.77-1.58,1.6-.58,1.23-1.9,1.14-1.9,1.14,0,0-.5.03-1.01-.23-.33-.16-.66-.44-.88-.92-.35-.74-.84-1.24-1.39-1.51v-4.43s30.68-.15,40.91-.14c9.11,0,36.45.14,36.45.14Z"/>
          <g>
            <path class="cls-5" d="M7,19.53v4.34c-.63.24-1.19.77-1.58,1.6-.58,1.23-1.9,1.14-1.9,1.14,0,0-.5.03-1.01-.23v-6.86h4.49Z"/>
            <path class="cls-5" d="M16.1,19.53v4.26c-.73.19-1.39.74-1.83,1.68-.58,1.23-1.89,1.14-1.89,1.14,0,0-.35.02-.76-.12v-6.96h4.49Z"/>
            <path class="cls-5" d="M25.2,19.53v4.21c-.83.13-1.59.69-2.08,1.73-.58,1.23-1.9,1.14-1.9,1.14,0,0-.22.01-.51-.05v-7.03h4.49Z"/>
            <path class="cls-5" d="M34.3,19.53v4.18c-.93.05-1.79.61-2.33,1.76-.58,1.23-1.9,1.14-1.9,1.14,0,0-.1,0-.26-.01v-7.07h4.49Z"/>
            <path class="cls-5" d="M43.4,19.53v4.18s-.03,0-.05,0c-1-.03-1.95.53-2.53,1.76-.58,1.23-1.9,1.14-1.9,1.14h-.01v-7.08h4.49Z"/>
            <path class="cls-5" d="M52.5,19.53v4.19c-.1,0-.2-.01-.3,0-1-.03-1.95.53-2.53,1.76-.43.91-1.26,1.1-1.66,1.13v-7.07h4.49Z"/>
            <path class="cls-5" d="M61.6,19.53v4.23c-.18-.04-.36-.05-.55-.05-1-.03-1.95.53-2.53,1.76-.35.75-.97,1.01-1.41,1.1v-7.04h4.49Z"/>
            <path class="cls-5" d="M70.7,19.53v4.29c-.26-.08-.53-.12-.8-.11-1-.03-1.95.53-2.53,1.76-.29.61-.76.9-1.16,1.03v-6.97h4.49Z"/>
            <path class="cls-5" d="M77.6,19.53v4.43c-.55.27-1.03.77-1.39,1.51-.23.49-.58.77-.91.93v-6.87h2.3Z"/>
            <path class="cls-6" d="M77.6,19.53v4.43c-.55.27-1.03.77-1.39,1.51-.23.49-.58.77-.91.93-.51.24-.98.21-.98.21,0,0-1.32.09-1.9-1.14-.42-.89-1.04-1.43-1.73-1.65-.26-.08-.53-.12-.8-.11-1-.03-1.95.53-2.53,1.76-.29.61-.76.9-1.16,1.03-.4.13-.73.11-.73.11,0,0-1.32.09-1.89-1.14-.47-1-1.19-1.56-1.98-1.71-.18-.04-.36-.05-.55-.05-1-.03-1.95.53-2.53,1.76-.35.75-.97,1.01-1.41,1.1-.28.06-.49.04-.49.04,0,0-1.32.09-1.9-1.14-.52-1.1-1.34-1.67-2.23-1.75-.1,0-.2-.01-.3,0-1-.03-1.95.53-2.53,1.76-.43.91-1.26,1.1-1.66,1.13-.14.01-.24,0-.24,0,0,0-1.32.09-1.9-1.14-.57-1.21-1.49-1.77-2.48-1.76-.02,0-.03,0-.05,0-1-.03-1.95.53-2.53,1.76-.58,1.23-1.9,1.14-1.9,1.14h-.01c-.14,0-1.34.01-1.88-1.14-.58-1.23-1.53-1.79-2.53-1.76-.07,0-.13,0-.2,0-.93.05-1.79.61-2.33,1.76-.58,1.23-1.9,1.14-1.9,1.14,0,0-.1,0-.26-.01-.41-.04-1.21-.24-1.63-1.13-.58-1.23-1.53-1.79-2.53-1.76-.15,0-.3,0-.45.03-.83.13-1.59.69-2.08,1.73-.58,1.23-1.9,1.14-1.9,1.14,0,0-.22.01-.51-.05-.43-.09-1.04-.36-1.38-1.09-.58-1.23-1.53-1.79-2.53-1.76-.24,0-.47.02-.7.08-.73.19-1.39.74-1.83,1.68-.58,1.23-1.89,1.14-1.89,1.14,0,0-.35.02-.76-.12-.39-.13-.85-.42-1.13-1.02-.58-1.23-1.53-1.79-2.53-1.76-.32,0-.64.04-.95.16-.63.24-1.19.77-1.58,1.6-.58,1.23-1.9,1.14-1.9,1.14,0,0-.5.03-1.01-.23-.33-.16-.66-.44-.88-.92-.35-.74-.84-1.24-1.39-1.51v-4.43s.12,0,.34,0c3.39-.02,30.98-.15,40.57-.14,9.11,0,36.45.14,36.45.14Z"/>
          </g>
          <g>
            <path class="cls-5" d="M38.92,2.92S29.97,14.93,7,19.53H2.51S26.48,15.69,38.92,2.92Z"/>
            <path class="cls-5" d="M11.61,19.53s15.34-3.36,27.31-16.61c0,0-6.95,10.26-22.82,16.61h-4.49Z"/>
            <path class="cls-5" d="M20.71,19.53s6.71-2.22,18.21-16.61c0,0-4.74,8.33-13.72,16.61"/>
            <path class="cls-5" d="M29.8,19.53s2.84-2.5,9.11-16.61c0,0-1.71,8.7-4.62,16.61"/>
            <path class="cls-5" d="M38.92,2.92s9.09,11.84,27.65,16.61h4.49s-19.71-3.84-32.14-16.61Z"/>
            <path class="cls-5" d="M61.6,19.53s-18.5-6.56-22.73-16.61c0,0,2.37,10.26,18.24,16.61h4.49Z"/>
            <path class="cls-5" d="M52.5,19.53s-11.98-6.76-13.58-16.61c0,0,.12,8.33,9.09,16.61"/>
            <path class="cls-5" d="M43.4,19.53s-4.2-5.84-4.53-16.61c0,0-1.45,11.04.05,16.61"/>
          </g>
          <path class="cls-9" d="M56.14,13.5c-4.12,1.97-9.25,3.61-15.32,4.01-8.47.56-14.12-1.92-17.7-4.64,5.25-2.4,10.76-5.62,15.8-9.95,5.5,4.72,11.56,8.13,17.22,10.58Z"/>
          <path class="cls-10" d="M77.6,23.55v.41c-.55.27-1.03.77-1.39,1.51-.23.49-.58.77-.91.93-.51.24-.98.21-.98.21,0,0-1.32.09-1.9-1.14-.42-.89-1.04-1.43-1.73-1.65-.26-.08-.53-.12-.8-.11-1-.03-1.95.53-2.53,1.76-.29.61-.76.9-1.16,1.03-.4.13-.73.11-.73.11,0,0-1.32.09-1.89-1.14-.47-1-1.19-1.56-1.98-1.71-.18-.04-.36-.05-.55-.05-1-.03-1.95.53-2.53,1.76-.35.75-.97,1.01-1.41,1.1-.28.06-.49.04-.49.04,0,0-1.32.09-1.9-1.14-.52-1.1-1.34-1.67-2.23-1.75-.1,0-.2-.01-.3,0-1-.03-1.95.53-2.53,1.76-.43.91-1.26,1.1-1.66,1.13-.14.01-.24,0-.24,0,0,0-1.32.09-1.9-1.14-.57-1.21-1.49-1.77-2.48-1.76-.02,0-.03,0-.05,0-1-.03-1.95.53-2.53,1.76-.58,1.23-1.9,1.14-1.9,1.14h-.01c-.14,0-1.34.01-1.88-1.14-.58-1.23-1.53-1.79-2.53-1.76-.07,0-.13,0-.2,0-.93.05-1.79.61-2.33,1.76-.58,1.23-1.9,1.14-1.9,1.14,0,0-.1,0-.26-.01-.41-.04-1.21-.24-1.63-1.13-.58-1.23-1.53-1.79-2.53-1.76-.15,0-.3,0-.45.03-.83.13-1.59.69-2.08,1.73-.58,1.23-1.9,1.14-1.9,1.14,0,0-.22.01-.51-.05-.43-.09-1.04-.36-1.38-1.09-.58-1.23-1.53-1.79-2.53-1.76-.24,0-.47.02-.7.08-.73.19-1.39.74-1.83,1.68-.58,1.23-1.89,1.14-1.89,1.14,0,0-.35.02-.76-.12-.39-.13-.85-.42-1.13-1.02-.58-1.23-1.53-1.79-2.53-1.76-.32,0-.64.04-.95.16-.63.24-1.19.77-1.58,1.6-.58,1.23-1.9,1.14-1.9,1.14,0,0-.5.03-1.01-.23-.33-.16-.66-.44-.88-.92-.35-.74-.84-1.24-1.39-1.51v-4.43s.12,0,.34,0v4.15s.92.23,1.32,1.41c.4,1.18,1.73,1.37,2.36.92.64-.44,1.14-2.06,2.15-2.46,1.02-.41,2.57-.21,3.23.28.66.49,1.19,1.73,1.97,2.19.79.46,1.92.07,2.1-.38.18-.45.59-1.78,2.04-2.19,1.45-.42,2.86-.14,3.59.84.73.98.8,1.75,1.58,1.94.79.19,1.55-.38,1.69-1.09.14-.72,1.47-2.05,3.41-1.81,1.94.25,2.15.47,2.55,1.51.4,1.03,1.02,1.36,1.81,1.24.79-.13,1.04-.58,1.21-1.26.17-.69,1.46-1.74,3.24-1.58,1.77.16,2.38,1.02,2.81,2.05s1.65.94,2.16.58c.51-.37.49-1.94,2.19-2.39,1.7-.45,3.3-.05,4.05,1.01.74,1.05.8,1.5,1.87,1.48,1.07-.02.77-.37,1.67-1.49.9-1.12,1.52-1.37,3.29-1.1,1.77.27,1.91,1.29,2.34,2.07.43.79,1.98.91,2.49.2.5-.71,1.49-2.16,2.63-2.4,1.15-.24,2.68,0,3.25,1.02.57,1.01.8,1.84,1.54,1.89.73.05,1.36-.03,1.68-.58.32-.55.23-2.26,3.05-2.24,2.81.02,2.88,1.69,3.48,2.39.59.71,2.16.51,2.49-.51.26-.8.9-1.44,1.8-1.66Z"/>
        </g>
      </g>
    </g>
  </g>
</svg>