<?xml version="1.0" encoding="UTF-8"?>
<svg xmlns="http://www.w3.org/2000/svg" xmlns:xlink="http://www.w3.org/1999/xlink" viewBox="0 0 23.9 10.85">
  <defs>
    <style>
      .cls-1 {
        fill: #cc0101;
      }

      .cls-2 {
        fill: url(#radial-gradient-3);
      }

      .cls-3 {
        fill: url(#radial-gradient-2);
      }

      .cls-4 {
        opacity: .66;
      }

      .cls-4, .cls-5 {
        fill: #fff;
        mix-blend-mode: overlay;
      }

      .cls-6 {
        fill: url(#radial-gradient);
      }

      .cls-7 {
        isolation: isolate;
      }

      .cls-8 {
        fill: #99314e;
      }

      .cls-9 {
        fill: #fff5f8;
      }
    </style>
    <radialGradient id="radial-gradient" cx="52.49" cy="46.23" fx="52.49" fy="46.23" r="5.03" gradientTransform="translate(-28.2 -45.88) rotate(6.36)" gradientUnits="userSpaceOnUse">
      <stop offset="0" stop-color="#ffd1dd"/>
      <stop offset=".6" stop-color="#ffb5c9"/>
      <stop offset="1" stop-color="#ffa8c0"/>
    </radialGradient>
    <radialGradient id="radial-gradient-2" cx="51.62" cy="42.31" fx="51.62" fy="42.31" r="7.49" gradientTransform="translate(-28.2 -45.88) rotate(6.36)" gradientUnits="userSpaceOnUse">
      <stop offset="0" stop-color="#ffb0c5"/>
      <stop offset=".21" stop-color="#ffa0b9"/>
      <stop offset=".72" stop-color="#ff7da1"/>
      <stop offset="1" stop-color="#ff7098"/>
    </radialGradient>
    <radialGradient id="radial-gradient-3" cx="46.11" cy="43.87" fx="46.11" fy="43.87" r="7.54" xlink:href="#radial-gradient"/>
  </defs>
  <g class="cls-7">
    <g id="Layer_2" data-name="Layer 2">
      <g id="Layer_1-2" data-name="Layer 1">
        <g>
          <g>
            <g>
              <path class="cls-9" d="M5.32,9.84c-.53,0-1.08-.02-1.64-.07-1.37-.12-2.46-.35-2.98-.48-.25-.06-.39-.1-.39-.1-.09-.02-.14-.11-.13-.2.45-3.1,2.16-4.12,2.88-4.41C1.13,2.86.9.5.89.39c0-.05.01-.1.04-.13s.08-.06.13-.06c.25-.01.5-.02.75-.02.29,0,.57,0,.84.03,1.02.05,2.06.23,3.09.54,1.07.32,2.1.75,3.06,1.29,1.31.72,2.15,1.45,2.42,1.68l.1.1s.06.09.05.15l-.52,4.65c0,.06-.04.11-.1.14-.2.1-.39.18-.59.25-.83.34-1.76.58-2.76.71-.66.09-1.36.13-2.08.13Z"/>
              <path class="cls-8" d="M1.81.36c.28,0,.56,0,.83.03,1.11.06,2.13.26,3.05.53,1.18.35,2.2.81,3.02,1.27,1.32.73,2.15,1.46,2.4,1.67.05.06.08.08.08.08l-.52,4.65c-.19.09-.38.17-.58.25-.88.36-1.81.58-2.72.7-.7.09-1.39.13-2.06.13-.57,0-1.11-.03-1.62-.07-1.34-.11-2.42-.34-2.96-.47-.25-.06-.38-.09-.38-.09.55-3.79,3.06-4.37,3.06-4.37C1.3,2.94,1.07.38,1.07.38c.25-.01.5-.02.74-.02M1.81,0c-.25,0-.5,0-.76.02-.1,0-.19.05-.25.12-.06.07-.1.17-.09.27,0,.1.23,2.37,2.04,4.13C1.9,4.97.42,6.11,0,8.97c-.03.18.09.35.26.4,0,0,.14.04.4.1.53.13,1.63.37,3.01.48.56.05,1.12.07,1.65.07.73,0,1.44-.05,2.11-.13,1.02-.14,1.96-.38,2.81-.73.21-.08.41-.16.6-.26.11-.05.18-.16.2-.28l.52-4.65c.01-.11-.03-.22-.11-.3,0,0-.02-.02-.06-.06,0-.01-.04-.03-.05-.04-.28-.24-1.13-.97-2.45-1.7-.97-.54-2.01-.98-3.09-1.3C4.74.26,3.69.08,2.66.03c-.27-.02-.56-.03-.85-.03h0Z"/>
            </g>
            <path class="cls-1" d="M5.69,1.22c-.1.88-.88,1.51-1.76,1.41-.88-.1-1.52-.89-1.42-1.76.02-.17.07-.33.13-.48,1.11.06,2.13.26,3.05.53.01.1,0,.2,0,.3Z"/>
            <path class="cls-1" d="M11.2,3.94l-.1.87c-.36.35-.88.54-1.42.48-.97-.11-1.68-.98-1.57-1.96.05-.46.28-.87.6-1.14,1.59.88,2.48,1.75,2.48,1.75Z"/>
            <circle class="cls-1" cx="5.26" cy="6.12" r="1.57"/>
            <path class="cls-1" d="M3.7,9.59c-1.34-.11-2.42-.34-2.96-.47.29-.57.91-.93,1.58-.85.72.08,1.27.64,1.38,1.33Z"/>
            <path class="cls-1" d="M10.12,8.71s0,.08-.02.12c-.88.36-1.81.58-2.72.7-.26-.32-.4-.73-.35-1.17.09-.85.86-1.47,1.72-1.37.85.09,1.47.87,1.37,1.72Z"/>
            <path class="cls-5" d="M10.7,8.43l-.02.16c-.19.09-.38.17-.58.25-.88.36-1.81.58-2.72.7-1.3.17-2.58.15-3.68.06-1.34-.11-2.42-.34-2.96-.47-.25-.06-.38-.09-.38-.09.55-3.79,3.06-4.37,3.06-4.37C1.3,2.94,1.07.38,1.07.38c.54-.03,1.07-.03,1.57,0,1.11.06,2.13.26,3.05.53,1.18.35,2.2.81,3.02,1.27,1.32.73,2.15,1.46,2.4,1.67l-.21.16S6.52.62,1.66.86c0,0,.12,2.23,2.51,4.03,0,0-2.83.68-3.27,3.8,0,0,5.02,1.55,9.73-.25.02-.01.05-.02.07-.02Z"/>
          </g>
          <g>
            <path class="cls-6" d="M20.1,10.67c-2.02,0-4.85-.33-6.84-1.9-.05-.04-.07-.1-.07-.16l.48-4.33s.02-.08.05-.1c0,0,.19-.2.54-.49,1.04-.85,3.3-2.27,6.68-2.27.5,0,1.02.03,1.54.1.05,0,.09.03.12.07s.04.09.03.14c-.01.08-.34,2.02-1.31,3.42-.23.32-.45.57-.67.77.5.38,1.83,1.5,2.65,3.18.17.36.3.7.4,1.05.01.05,0,.1-.02.14-.03.04-.07.07-.12.08-.01,0-1.53.3-3.47.3Z"/>
            <path class="cls-8" d="M20.95,1.6c.48,0,.99.03,1.51.09,0,0-.33,1.96-1.28,3.35-.24.34-.51.65-.82.88,0,0,1.79,1.21,2.78,3.25.15.32.29.66.39,1.02,0,0-1.49.3-3.43.3-2.13,0-4.82-.36-6.73-1.87l.48-4.32s.18-.19.52-.48c.95-.77,3.19-2.23,6.57-2.23M20.95,1.24h0c-3.44,0-5.73,1.45-6.79,2.31-.36.3-.55.5-.56.51-.05.06-.09.13-.1.21l-.48,4.32c-.01.12.04.24.13.32,2.03,1.61,4.9,1.94,6.95,1.94s3.44-.29,3.5-.31c.1-.02.18-.08.24-.17.05-.09.07-.19.04-.29-.1-.35-.24-.71-.41-1.07-.75-1.55-1.93-2.63-2.53-3.11.18-.18.36-.39.54-.65.99-1.45,1.33-3.42,1.34-3.5.02-.1,0-.2-.07-.27-.06-.08-.15-.13-.24-.14-.52-.06-1.05-.1-1.56-.1h0Z"/>
          </g>
          <g>
            <path class="cls-3" d="M23.15,9.35s-.08-.01-.11-.04c-1.03-.82-3.16-2.2-5.85-2.2-1.24,0-2.46.3-3.64.9l-.17-.12.04.18s-.05.02-.08.02c-.04,0-.08-.01-.11-.04-.05-.04-.08-.11-.07-.18l.58-2.77c.01-.06.05-.1.1-.13.08-.04,1.86-.85,4.08-.85,1.23,0,2.36.25,3.34.75.05.02.08.07.09.12.01.05,0,.11-.03.15-.23.32-.45.57-.67.77.5.38,1.83,1.5,2.65,3.18.04.08.02.17-.05.22-.03.03-.07.04-.11.04Z"/>
            <path class="cls-8" d="M17.93,4.31c1.05,0,2.18.19,3.26.73-.24.34-.51.65-.82.88,0,0,1.79,1.21,2.78,3.25-.92-.73-3.14-2.24-5.96-2.24-1.16,0-2.41.25-3.72.92-.05.02-.08.04-.13.07l.26-1.24.32-1.53s1.8-.83,4.01-.83M17.93,3.95h0c-2.26,0-4.08.83-4.16.86-.1.05-.18.14-.2.25l-.32,1.53-.26,1.24c-.03.14.02.28.13.36.06.05.14.07.22.07.06,0,.11-.01.17-.04,0,0,.04-.02.05-.02.01,0,.07-.03.08-.04,1.15-.58,2.34-.88,3.56-.88,2.63,0,4.72,1.36,5.74,2.16.07.05.14.08.22.08s.16-.03.22-.08c.13-.1.17-.29.1-.44-.75-1.55-1.93-2.63-2.53-3.11.18-.18.36-.39.54-.65.06-.09.08-.19.06-.29s-.09-.19-.19-.24c-1.01-.51-2.16-.77-3.42-.77h0Z"/>
          </g>
          <path class="cls-4" d="M23.54,10.19s-6.52,1.31-10.16-1.57l.02-.19c.17.08.36.19.59.33,3.49,2.11,9.13,1.18,9.13,1.18-1.34-2.68-3.31-4.07-3.31-4.07,2.15-1.67,2.26-3.87,2.26-3.87-4.64-.48-7.66,2.07-7.66,2.07l-.02-.24c1.09-.88,3.85-2.65,8.08-2.13,0,0-.33,1.96-1.28,3.35-.24.34-.51.65-.82.88,0,0,1.79,1.21,2.78,3.25.15.32.29.66.39,1.02Z"/>
          <g>
            <path class="cls-2" d="M12.89,9.56c-.25,0-.5-.03-.71-.05-.17-.02-.32-.02-.46-.03-.38-.01-.78-.03-1.07-.26-.05-.04-.1-.09-.16-.16,0,0-.01-.02-.02-.03-.34-.47-.6-1.57-.33-3.3.28-1.81,1.02-2.45,1.56-2.45.05,0,.1,0,.14.02.37.09.74.13.74.13.11.02.23.01.36.02.43,0,1.02,0,1.36.49.45.64-.09,4.86-.4,5.26-.06.08-.13.14-.2.18-.18.12-.45.19-.83.19Z"/>
            <path class="cls-8" d="M11.7,3.45s.07,0,.1.01c.38.09.77.14.77.14.43.06,1.21-.12,1.59.43.38.55-.08,4.65-.39,5.05-.04.05-.09.1-.14.13-.19.13-.46.17-.74.17-.25,0-.51-.03-.72-.05-.52-.06-1.07.03-1.41-.24-.04-.03-.08-.07-.12-.12h0c-.31-.4-.59-1.46-.32-3.2.28-1.79.98-2.3,1.38-2.3M11.7,3.09h0c-.64,0-1.44.68-1.74,2.6-.28,1.77,0,2.92.35,3.42,0,.01.01.03.02.04.07.1.14.16.18.19.35.27.78.29,1.19.3.14,0,.28,0,.42.02.24.03.5.06.76.06.41,0,.72-.08.94-.23.06-.03.15-.11.22-.2.37-.49.9-4.77.4-5.48-.38-.56-1.06-.57-1.5-.57-.12,0-.24,0-.33-.01-.02,0-.38-.04-.73-.13-.06-.01-.12-.02-.19-.02h0Z"/>
          </g>
          <path class="cls-4" d="M13.77,9.08c-.04.05-.09.1-.14.13.29-.7.52-3.59.44-4.48-.08-.89-.57-.9-1.08-.84-.51.06-.8-.04-1.14-.13-.35-.08-.89.35-1.23,2-.34,1.65.02,3.19.02,3.19-.31-.4-.59-1.46-.32-3.2.3-1.96,1.11-2.38,1.49-2.29.38.09.77.14.77.14.43.06,1.21-.12,1.59.43.38.55-.08,4.65-.39,5.05Z"/>
        </g>
      </g>
    </g>
  </g>
</svg>