<?xml version="1.0" encoding="UTF-8"?>
<svg xmlns="http://www.w3.org/2000/svg" viewBox="0 0 24.59 16.51">
  <defs>
    <style>
      .cls-1 {
        fill: #a32c4e;
      }

      .cls-2 {
        fill: #bf547f;
      }

      .cls-3 {
        stroke: #a32c4e;
        stroke-linecap: round;
        stroke-linejoin: round;
        stroke-width: .26px;
      }

      .cls-3, .cls-4, .cls-5 {
        fill: #fff;
      }

      .cls-4 {
        opacity: .7;
      }

      .cls-4, .cls-5 {
        mix-blend-mode: overlay;
      }

      .cls-6 {
        isolation: isolate;
      }

      .cls-7 {
        fill: #eb7899;
      }

      .cls-8 {
        fill: #cf507f;
      }

      .cls-9 {
        fill: #f59dbf;
      }

      .cls-10 {
        fill: #ffd14b;
      }

      .cls-11 {
        fill: #ffd744;
      }
    </style>
  </defs>
  <g class="cls-6">
    <g id="Layer_2" data-name="Layer 2">
      <g id="Layer_1-2" data-name="Layer 1">
        <g>
          <g>
            <g>
              <g>
                <path class="cls-9" d="M11.87,11.51c-.13-.04-2.15-.85-3.95-3.13-.07-.09-.13-.14-.16-.2-1.82-2.39-2.19-4.98-2.19-5.01,0-.05.01-.09.05-.12.02-.02.05-.03.08-.03.02,0,.03,0,.05.01.07.03,1.7.71,2.97,1.79-.06-.68-.15-2.24.18-3.71.01-.05.05-.08.09-.1.01,0,.02,0,.04,0,.03,0,.07.01.09.04.28.28,1.15,1.18,1.71,2.09.18-.66.64-2.18,1.37-2.95.02-.03.07-.05.1-.05h0s.08,0,.1.03c.73.78,1.19,2.3,1.37,2.96.56-.91,1.44-1.81,1.71-2.09.03-.03.06-.04.1-.04.01,0,.02,0,.03,0,.05.01.08.05.09.1.33,1.48.25,3.04.19,3.71,1.26-1.08,2.88-1.76,2.95-1.79.02,0,.03-.01.05-.01.03,0,.06,0,.08.03.04.03.06.08.05.12,0,.03-.38,2.62-2.2,5.02-.27.34-.53.65-.78.94-1.63,1.72-3.22,2.36-3.29,2.38-.02,0-.03,0-.05,0h-.86Z"/>
                <path class="cls-1" d="M12.3.26c.91.98,1.42,3.22,1.42,3.22.58-1.07,1.73-2.22,1.86-2.35.44,1.94.16,4.01.16,4.01,1.28-1.21,3.17-2,3.17-2,0,0-.35,2.56-2.17,4.95-.26.33-.53.65-.77.93-1.63,1.72-3.24,2.35-3.24,2.35h-.86s-2.05-.81-3.85-3.08c0,0,0-.02-.02-.04-.05-.05-.11-.11-.14-.16-1.82-2.4-2.17-4.95-2.17-4.95,0,0,1.89.79,3.19,2,0,0-.3-2.07.14-4.01.12.12,1.28,1.28,1.86,2.35,0,0,.51-2.24,1.42-3.2l.02-.02M12.3,0c-.07,0-.14.03-.19.08l-.02.02c-.66.7-1.11,1.97-1.33,2.73-.57-.84-1.32-1.62-1.57-1.87-.05-.05-.12-.08-.19-.08-.02,0-.05,0-.07.01-.09.03-.16.1-.18.19-.3,1.31-.27,2.66-.21,3.44-1.24-.98-2.69-1.59-2.76-1.61-.03-.01-.07-.02-.1-.02-.06,0-.11.02-.16.05-.07.06-.11.15-.1.24.01.11.38,2.65,2.22,5.08.03.04.08.1.13.15,0,.02.02.03.03.04,1.83,2.3,3.87,3.13,3.96,3.16.03.01.06.02.1.02h.86s.07,0,.1-.02c.07-.03,1.68-.67,3.33-2.41.25-.29.52-.61.79-.95,1.84-2.43,2.21-4.97,2.22-5.08.01-.09-.03-.19-.1-.24-.05-.04-.1-.05-.16-.05-.03,0-.07,0-.1.02-.07.03-1.52.64-2.75,1.61.05-.78.07-2.13-.22-3.44-.02-.09-.09-.17-.18-.19-.02,0-.05-.01-.07-.01-.07,0-.14.03-.19.08-.25.25-1.01,1.03-1.57,1.87-.22-.76-.67-2.03-1.32-2.74-.05-.05-.12-.08-.19-.08,0,0,0,0,0,0h0Z"/>
              </g>
              <path class="cls-8" d="M13.72,3.48c-1.12,1.81-1.43,3.11-1.43,3.11V.28h0c.92.96,1.42,3.2,1.42,3.2Z"/>
              <path class="cls-8" d="M15.74,5.15c-1.46,1.59-2.21,2.81-2.29,2.94.39-1.43,2.03-6.63,2.13-6.96,0,0,0-.02,0-.02.44,1.94.16,4.03.16,4.03Z"/>
              <path class="cls-8" d="M18.9,3.15s-.35,2.55-2.18,4.96c-1.82,2.41-3.99,3.27-3.99,3.27h-.27c-.02-.15.08-.34.33-.58,1.55-1.48,6.11-7.65,6.11-7.65Z"/>
              <path class="cls-8" d="M11.15,8.1c-.09-.14-.83-1.35-2.28-2.94,0,0-.3-2.09.15-4.03,0,0,0,0,0,.02.1.32,1.74,5.52,2.13,6.96Z"/>
              <path class="cls-8" d="M12.14,11.38h-.28s-2.16-.86-3.99-3.27c-1.83-2.41-2.18-4.96-2.18-4.96,0,0,4.57,6.17,6.12,7.65.25.24.35.43.33.58Z"/>
            </g>
            <polygon class="cls-9" points="12.29 .26 12.3 .27 12.31 .26 12.29 .26"/>
            <path class="cls-4" d="M18.9,3.15s-.35,2.56-2.17,4.95c-.26.33-.53.65-.77.93,0-.02.02-.05.04-.07,2.24-3.12,2.56-5.36,2.56-5.36-1.35.6-3.08,1.84-3.08,1.84.3-1.86-.05-3.83-.05-3.83-.6.6-1.82,2.07-1.82,2.07-.32-1.61-1.3-3.1-1.3-3.1-.75,1.09-1.38,3.22-1.38,3.22-.65-1.14-1.84-2.22-1.84-2.22-.07,1.3-.07,3.75-.07,3.75.91.88,1.75,2.15,2.03,2.61-2.36-3.43-5.06-4.39-5.06-4.39.47,2.12,1.84,4.45,2.01,4.73-.05-.05-.11-.11-.14-.16-1.82-2.4-2.17-4.95-2.17-4.95,0,0,1.89.79,3.19,2,0,0-.3-2.07.14-4.01.12.12,1.28,1.28,1.86,2.35,0,0,.51-2.24,1.42-3.2l.02-.02c.91.98,1.42,3.22,1.42,3.22.58-1.07,1.73-2.22,1.86-2.35.44,1.94.16,4.01.16,4.01,1.28-1.21,3.17-2,3.17-2Z"/>
          </g>
          <g>
            <path class="cls-7" d="M6.4,16.37c-.16,0-.33,0-.5-.02-.35-.02-.71-.07-1.09-.16C1.64,15.51-.05,11,.15,7.03c0-.07.05-.12.12-.12h.01c.06,0,.11.04.13.1.01.05.32,1.25,1.73,1.48.49.08.99.11,1.52.13,1.12.05,2.39.11,3.97.75.81.35,1.58.73,2.41,1.22.19.1.29.15.29.15.85.47,1.44.77,1.97.77.58,0,1.28-.39,2.17-.89.7-.39,1.5-.84,2.49-1.25,1.59-.65,2.86-.7,3.98-.75.53-.02,1.03-.05,1.51-.13,1.42-.23,1.72-1.42,1.73-1.48.01-.06.07-.1.13-.1h.01c.06,0,.12.06.12.12.2,3.97-1.49,8.48-4.67,9.17-.52.11-1.06.17-1.61.17-2.28,0-4.08-.96-4.67-1.27-.53-.26-.95-.26-1.09-.26h-.12c-.34,0-.73.04-1.13.25-1.61.86-3.2,1.29-4.73,1.29Z"/>
            <path class="cls-1" d="M24.31,7.04c.21,4.13-1.56,8.38-4.57,9.03-.54.12-1.08.17-1.59.17-2.29,0-4.13-1-4.64-1.27-.49-.25-.91-.26-1.12-.26h-.11s-.05,0-.1,0c-.2,0-.63.02-1.11.26-.52.28-2.36,1.28-4.67,1.28-.16,0-.32,0-.49-.02-.35-.02-.7-.07-1.07-.16C1.84,15.42.07,11.17.28,7.04c0,0,.32,1.33,1.84,1.58,1.52.26,3.15-.07,5.46.88.95.4,1.73.82,2.4,1.21.19.11.3.16.3.16.82.46,1.45.79,2.03.79,1.07,0,2.4-1.19,4.71-2.15,2.33-.95,3.96-.61,5.46-.88,1.52-.24,1.84-1.58,1.84-1.58M24.31,6.77c-.12,0-.23.08-.26.2-.01.05-.31,1.17-1.62,1.38-.48.08-.97.11-1.5.13-1.13.05-2.41.11-4.02.76-1,.42-1.84.89-2.51,1.26-.87.49-1.56.87-2.1.87-.5,0-1.08-.3-1.9-.75-.01,0-.11-.06-.3-.16-.83-.48-1.61-.87-2.42-1.22-1.61-.66-2.89-.71-4.02-.76-.53-.02-1.03-.05-1.5-.13-1.33-.21-1.62-1.33-1.63-1.38-.03-.12-.14-.2-.26-.2,0,0-.02,0-.03,0-.13.01-.23.12-.24.25-.2,4.02,1.53,8.6,4.78,9.3.38.09.75.15,1.11.16.17.01.34.02.5.02,1.55,0,3.16-.43,4.77-1.29.41-.21.78-.25,1.01-.25h.06s.14,0,.14,0c.13,0,.53,0,1,.23.63.33,2.45,1.3,4.76,1.3.56,0,1.11-.06,1.64-.17,3.25-.7,4.98-5.28,4.78-9.3,0-.13-.11-.24-.24-.25,0,0-.02,0-.02,0h0Z"/>
          </g>
          <path class="cls-4" d="M5.92,16.23c-.35-.02-.7-.07-1.07-.16C1.84,15.42.07,11.17.28,7.04c0,0,.32,1.33,1.84,1.58,1.52.26,3.15-.07,5.46.88.95.4,1.73.82,2.4,1.21-.84-.4-3.33-1.52-5.74-1.59-2.98-.09-3.5-.7-3.64-1.05,0,0,.21,7.54,5.32,8.17Z"/>
          <path class="cls-4" d="M18.67,16.23c.35-.02.7-.07,1.07-.16,3.01-.65,4.78-4.9,4.57-9.03,0,0-.32,1.33-1.84,1.58-1.52.26-3.15-.07-5.46.88-.95.4-1.73.82-2.4,1.21.84-.4,3.33-1.52,5.74-1.59,2.98-.09,3.5-.7,3.64-1.05,0,0-.21,7.54-5.32,8.17Z"/>
          <path class="cls-2" d="M16.07,11.56s.64-1,2.32-1.09,3.08-.08,3.1.06-.47,1.39-1.21,2.18-2.25,1.34-3.43,1.12-.77-2.28-.77-2.28Z"/>
          <path class="cls-3" d="M15.13,13.87s-.08-1.97,1.55-2.69,3.69-.23,3.76,0-.51,2.09-2.2,2.45-3.11.24-3.11.24Z"/>
          <g>
            <circle class="cls-10" cx="21.31" cy="14.05" r=".48"/>
            <circle class="cls-10" cx="20.23" cy="14.94" r=".39"/>
            <circle class="cls-10" cx="19.14" cy="15.42" r=".33"/>
            <circle class="cls-10" cx="18.08" cy="15.58" r=".31"/>
            <circle class="cls-10" cx="17.13" cy="15.54" r=".26"/>
            <circle class="cls-10" cx="16.31" cy="15.42" r=".23"/>
            <circle class="cls-10" cx="15.48" cy="15.24" r=".2"/>
          </g>
          <path class="cls-2" d="M8.52,11.56s-.64-1-2.32-1.09-3.08-.08-3.1.06.47,1.39,1.21,2.18,2.25,1.34,3.43,1.12.77-2.28.77-2.28Z"/>
          <path class="cls-3" d="M9.47,13.87s.08-1.97-1.55-2.69-3.69-.23-3.76,0,.51,2.09,2.2,2.45,3.11.24,3.11.24Z"/>
          <g>
            <circle class="cls-10" cx="3.29" cy="14.05" r=".48"/>
            <circle class="cls-10" cx="4.36" cy="14.94" r=".39"/>
            <circle class="cls-10" cx="5.45" cy="15.42" r=".33"/>
            <circle class="cls-10" cx="6.51" cy="15.58" r=".31"/>
            <circle class="cls-10" cx="7.47" cy="15.54" r=".26"/>
            <circle class="cls-10" cx="8.29" cy="15.42" r=".23"/>
            <circle class="cls-10" cx="9.12" cy="15.24" r=".2"/>
          </g>
          <g>
            <path class="cls-11" d="M12.29,13.42c-.33,0-.6-.05-.84-.15-.69-.25-.98-.86-.85-1.84.13-.83.68-1.84,1.56-2.83.02-.03.1-.08.13-.08s.09.02.12.05c.9,1.03,1.46,2.03,1.59,2.86.02.2.04.33.04.44,0,.55-.17.96-.51,1.21-.27.21-.66.32-1.21.34h-.02Z"/>
            <path class="cls-1" d="M12.3,8.65c.09.11,1.35,1.45,1.56,2.8.02.16.03.3.03.42,0,.54-.18.89-.46,1.1-.3.23-.72.3-1.14.32h-.02c-.28,0-.54-.04-.79-.14-.54-.19-.91-.67-.77-1.7.21-1.35,1.47-2.7,1.56-2.8h.02M12.3,8.38h-.02c-.08,0-.15.03-.2.09-.92,1.04-1.48,2.07-1.62,2.93-.18,1.3.41,1.8.94,1.99.24.1.52.16.88.16.39-.02.92-.07,1.32-.37.37-.28.56-.72.56-1.31,0-.12-.01-.25-.03-.4v-.05c-.14-.87-.71-1.9-1.6-2.91-.05-.06-.15-.13-.23-.13h0Z"/>
          </g>
          <path class="cls-5" d="M13.44,12.97c.16-.28.3-.79.16-1.51-.25-1.23-1.31-2.43-1.31-2.43,0,0-1.05,1.35-1.31,2.5-.19.86.26,1.38.53,1.61-.54-.19-.91-.67-.77-1.7.21-1.35,1.47-2.7,1.56-2.8h.02c.09.11,1.35,1.45,1.56,2.8.02.16.03.3.03.42,0,.54-.18.89-.46,1.1Z"/>
        </g>
      </g>
    </g>
  </g>
</svg>